<svg width="56" height="56" viewBox="0 0 56 56" fill="none" xmlns="http://www.w3.org/2000/svg">
<path d="M41 24.88C40.9792 24.6963 40.9389 24.5153 40.88 24.34V24.16C40.7838 23.9544 40.6556 23.7653 40.5 23.6L28.5 11.6C28.3347 11.4444 28.1456 11.3162 27.94 11.22H27.76C27.5568 11.1035 27.3324 11.0287 27.1 11H15C13.4087 11 11.8826 11.6321 10.7574 12.7574C9.63214 13.8826 9 15.4087 9 17V45C9 46.5913 9.63214 48.1174 10.7574 49.2426C11.8826 50.3679 13.4087 51 15 51H35C36.5913 51 38.1174 50.3679 39.2426 49.2426C40.3679 48.1174 41 46.5913 41 45V25C41 25 41 25 41 24.88Z" fill="#F84E54" fill-opacity="0.66"/>
<path d="M48 17.88C47.9792 17.6963 47.9389 17.5153 47.88 17.34V17.16C47.7838 16.9544 47.6556 16.7653 47.5 16.6L35.5 4.6C35.3347 4.44443 35.1456 4.31616 34.94 4.22H34.76C34.5568 4.10348 34.3324 4.02869 34.1 4H22C20.4087 4 18.8826 4.63214 17.7574 5.75736C16.6321 6.88258 16 8.4087 16 10V38C16 39.5913 16.6321 41.1174 17.7574 42.2426C18.8826 43.3679 20.4087 44 22 44H42C43.5913 44 45.1174 43.3679 46.2426 42.2426C47.3679 41.1174 48 39.5913 48 38V18C48 18 48 18 48 17.88ZM36 10.82L41.18 16H38C37.4696 16 36.9609 15.7893 36.5858 15.4142C36.2107 15.0391 36 14.5304 36 14V10.82ZM44 38C44 38.5304 43.7893 39.0391 43.4142 39.4142C43.0391 39.7893 42.5304 40 42 40H22C21.4696 40 20.9609 39.7893 20.5858 39.4142C20.2107 39.0391 20 38.5304 20 38V10C20 9.46957 20.2107 8.96086 20.5858 8.58579C20.9609 8.21071 21.4696 8 22 8H32V14C32 15.5913 32.6321 17.1174 33.7574 18.2426C34.8826 19.3679 36.4087 20 38 20H44V38Z" fill="#353535"/>
</svg>
