<svg width="21" height="18" viewBox="0 0 21 18" fill="none" xmlns="http://www.w3.org/2000/svg">
<path d="M19.1603 1.99992C18.1002 0.937129 16.6951 0.288461 15.1986 0.171091C13.7021 0.0537212 12.213 0.475387 11.0003 1.35992C9.72793 0.413559 8.14427 -0.0155675 6.5682 0.158959C4.99212 0.333485 3.54072 1.0987 2.50625 2.30051C1.47178 3.50231 0.931098 5.05144 0.993077 6.63594C1.05506 8.22043 1.71509 9.72259 2.84028 10.8399L9.05028 17.0599C9.57029 17.5717 10.2707 17.8585 11.0003 17.8585C11.7299 17.8585 12.4303 17.5717 12.9503 17.0599L19.1603 10.8399C20.3279 9.66519 20.9832 8.07619 20.9832 6.41992C20.9832 4.76365 20.3279 3.17465 19.1603 1.99992Z" fill="#F84E54"/>
</svg>
