<svg width="14" height="14" viewBox="0 0 14 14" fill="none" xmlns="http://www.w3.org/2000/svg">
<path d="M7.00065 0.333252C5.68211 0.333252 4.39318 0.724245 3.29685 1.45679C2.20052 2.18933 1.34604 3.23052 0.841457 4.4487C0.336873 5.66687 0.204851 7.00731 0.462086 8.30052C0.71932 9.59373 1.35426 10.7816 2.28661 11.714C3.21896 12.6463 4.40685 13.2813 5.70005 13.5385C6.99326 13.7957 8.3337 13.6637 9.55188 13.1591C10.7701 12.6545 11.8112 11.8 12.5438 10.7037C13.2763 9.60739 13.6673 8.31846 13.6673 6.99992C13.6654 5.23241 12.9623 3.53786 11.7125 2.28804C10.4627 1.03823 8.76816 0.335218 7.00065 0.333252ZM7.00065 12.3333C5.94582 12.3333 4.91467 12.0205 4.03761 11.4344C3.16055 10.8484 2.47696 10.0154 2.0733 9.0409C1.66963 8.06636 1.56401 6.994 1.7698 5.95944C1.97559 4.92487 2.48354 3.97456 3.22942 3.22868C3.9753 2.4828 4.92561 1.97485 5.96017 1.76906C6.99474 1.56328 8.06709 1.66889 9.04163 2.07256C10.0162 2.47623 10.8491 3.15982 11.4352 4.03688C12.0212 4.91394 12.334 5.94508 12.334 6.99992C12.3324 8.41391 11.7699 9.76952 10.7701 10.7694C9.77026 11.7692 8.41465 12.3316 7.00065 12.3333ZM7.00065 6.66658C6.82384 6.66658 6.65427 6.73682 6.52925 6.86185C6.40423 6.98687 6.33399 7.15644 6.33399 7.33325V9.33325C6.33399 9.51006 6.40423 9.67963 6.52925 9.80466C6.65427 9.92968 6.82384 9.99992 7.00065 9.99992C7.17747 9.99992 7.34703 9.92968 7.47206 9.80466C7.59708 9.67963 7.66732 9.51006 7.66732 9.33325V7.33325C7.66732 7.15644 7.59708 6.98687 7.47206 6.86185C7.34703 6.73682 7.17747 6.66658 7.00065 6.66658ZM7.00065 3.99992C6.83584 3.99992 6.67472 4.04879 6.53768 4.14036C6.40064 4.23193 6.29383 4.36208 6.23075 4.51435C6.16768 4.66662 6.15118 4.83418 6.18333 4.99583C6.21549 5.15748 6.29486 5.30596 6.4114 5.42251C6.52794 5.53905 6.67643 5.61842 6.83808 5.65057C6.99973 5.68273 7.16729 5.66622 7.31956 5.60315C7.47183 5.54008 7.60198 5.43327 7.69355 5.29623C7.78511 5.15919 7.83399 4.99807 7.83399 4.83325C7.83399 4.61224 7.74619 4.40028 7.58991 4.244C7.43363 4.08772 7.22167 3.99992 7.00065 3.99992Z" fill="#F84E54"/>
</svg>
