<svg width="21" height="18" viewBox="0 0 21 18" fill="none" xmlns="http://www.w3.org/2000/svg">
<path d="M19.1603 1.99992C18.1002 0.937129 16.6951 0.288461 15.1986 0.171091C13.7021 0.0537212 12.213 0.475387 11.0003 1.35992C9.72793 0.413559 8.14427 -0.0155675 6.5682 0.158959C4.99212 0.333485 3.54072 1.0987 2.50625 2.30051C1.47178 3.50231 0.931098 5.05144 0.993077 6.63594C1.05506 8.22043 1.71509 9.72259 2.84028 10.8399L9.05028 17.0599C9.57029 17.5717 10.2707 17.8585 11.0003 17.8585C11.7299 17.8585 12.4303 17.5717 12.9503 17.0599L19.1603 10.8399C20.3279 9.66519 20.9832 8.07619 20.9832 6.41992C20.9832 4.76365 20.3279 3.17465 19.1603 1.99992ZM17.7503 9.45992L11.5403 15.6699C11.4696 15.7413 11.3855 15.7979 11.2928 15.8366C11.2001 15.8752 11.1007 15.8951 11.0003 15.8951C10.8999 15.8951 10.8004 15.8752 10.7077 15.8366C10.615 15.7979 10.5309 15.7413 10.4603 15.6699L4.25028 9.42992C3.46603 8.62827 3.02689 7.55139 3.02689 6.42992C3.02689 5.30846 3.46603 4.23158 4.25028 3.42992C5.04943 2.64091 6.12725 2.19849 7.25028 2.19849C8.3733 2.19849 9.45112 2.64091 10.2503 3.42992C10.3432 3.52365 10.4538 3.59804 10.5757 3.64881C10.6976 3.69958 10.8283 3.72572 10.9603 3.72572C11.0923 3.72572 11.223 3.69958 11.3449 3.64881C11.4667 3.59804 11.5773 3.52365 11.6703 3.42992C12.4694 2.64091 13.5472 2.19849 14.6703 2.19849C15.7933 2.19849 16.8711 2.64091 17.6703 3.42992C18.4653 4.22107 18.9189 5.29211 18.9338 6.41361C18.9488 7.5351 18.5239 8.61786 17.7503 9.42992V9.45992Z" fill="#F84E54"/>
</svg>
