<svg width="16" height="16" viewBox="0 0 16 16" fill="none" xmlns="http://www.w3.org/2000/svg">
<path d="M8.39398 8.66665L6.86065 10.1933C6.79817 10.2553 6.74857 10.329 6.71472 10.4103C6.68088 10.4915 6.66345 10.5786 6.66345 10.6667C6.66345 10.7547 6.68088 10.8418 6.71472 10.923C6.74857 11.0043 6.79817 11.078 6.86065 11.14C6.92263 11.2025 6.99636 11.2521 7.0776 11.2859C7.15884 11.3198 7.24598 11.3372 7.33398 11.3372C7.42199 11.3372 7.50913 11.3198 7.59037 11.2859C7.67161 11.2521 7.74534 11.2025 7.80732 11.14L10.474 8.47332C10.5347 8.40992 10.5823 8.33515 10.614 8.25332C10.6807 8.09101 10.6807 7.90896 10.614 7.74665C10.5823 7.66482 10.5347 7.59005 10.474 7.52665L7.80732 4.85999C7.74516 4.79783 7.67137 4.74852 7.59015 4.71488C7.50894 4.68124 7.42189 4.66392 7.33398 4.66392C7.24608 4.66392 7.15903 4.68124 7.07782 4.71488C6.9966 4.74852 6.92281 4.79783 6.86065 4.85999C6.79849 4.92214 6.74918 4.99594 6.71554 5.07715C6.6819 5.15837 6.66459 5.24541 6.66459 5.33332C6.66459 5.42122 6.6819 5.50827 6.71554 5.58949C6.74918 5.6707 6.79849 5.74449 6.86065 5.80665L8.39398 7.33332H2.00065C1.82384 7.33332 1.65427 7.40356 1.52925 7.52858C1.40422 7.65361 1.33398 7.82317 1.33398 7.99999C1.33398 8.1768 1.40422 8.34637 1.52925 8.47139C1.65427 8.59641 1.82384 8.66665 2.00065 8.66665H8.39398ZM8.00065 1.33332C6.75471 1.32776 5.53215 1.67146 4.47163 2.32545C3.41111 2.97943 2.55509 3.91752 2.00065 5.03332C1.92109 5.19245 1.90799 5.37667 1.96426 5.54545C2.02052 5.71423 2.14152 5.85375 2.30065 5.93332C2.45978 6.01288 2.644 6.02598 2.81278 5.96972C2.98157 5.91345 3.12109 5.79245 3.20065 5.63332C3.62211 4.7822 4.26321 4.05906 5.05768 3.53864C5.85216 3.01822 6.7712 2.7194 7.71982 2.67305C8.66844 2.6267 9.61224 2.8345 10.4537 3.27499C11.2951 3.71548 12.0036 4.37267 12.5061 5.17865C13.0085 5.98463 13.2866 6.91015 13.3116 7.85957C13.3366 8.809 13.1076 9.74788 12.6483 10.5792C12.189 11.4105 11.5161 12.1041 10.699 12.5883C9.88194 13.0724 8.9504 13.3297 8.00065 13.3333C7.00657 13.3376 6.03142 13.0616 5.18711 12.5368C4.3428 12.0121 3.66355 11.2599 3.22732 10.3667C3.14775 10.2075 3.00823 10.0865 2.83945 10.0303C2.67067 9.974 2.48645 9.98709 2.32732 10.0667C2.16819 10.1462 2.04718 10.2857 1.99092 10.4545C1.93466 10.6233 1.94775 10.8075 2.02732 10.9667C2.55587 12.0303 3.359 12.9335 4.35363 13.5827C5.34827 14.2319 6.49828 14.6036 7.68473 14.6593C8.87118 14.715 10.051 14.4528 11.1021 13.8997C12.1532 13.3465 13.0374 12.5226 13.6634 11.5132C14.2893 10.5038 14.6342 9.34541 14.6623 8.15799C14.6905 6.97056 14.4009 5.79718 13.8235 4.75921C13.2461 3.72123 12.4019 2.85636 11.3782 2.25406C10.3544 1.65175 9.18841 1.33388 8.00065 1.33332Z" fill="white"/>
</svg>
